<svg xmlns="http://www.w3.org/2000/svg" xmlns:xlink="http://www.w3.org/1999/xlink" width="60" zoomAndPan="magnify" viewBox="0 0 375 374.999991" height="59.999991" preserveAspectRatio="xMidYMid meet" version="1.0"><defs><clipPath id="id1"><path d="M 8.824219 79.96875 L 365.824219 79.96875 L 365.824219 295.21875 L 8.824219 295.21875 Z M 8.824219 79.96875 " clip-rule="nonzero"/></clipPath></defs><g clip-path="url(#id1)"><path fill="rgb(45.098877%, 45.098877%, 45.098877%)" d="M 341.644531 152.132812 L 294.253906 104.710938 C 294.226562 104.679688 294.195312 104.65625 294.164062 104.625 C 294.132812 104.597656 294.105469 104.558594 294.066406 104.519531 C 278.246094 88.691406 257.207031 79.96875 234.832031 79.96875 C 217.664062 79.96875 201.289062 85.125 187.445312 94.667969 C 173.601562 85.125 157.230469 79.96875 140.058594 79.96875 C 117.683594 79.96875 96.644531 88.691406 80.828125 104.519531 L 33.4375 151.941406 C 17.621094 167.78125 8.90625 188.824219 8.90625 211.21875 C 8.90625 233.609375 17.621094 254.664062 33.4375 270.492188 C 49.257812 286.324219 70.296875 295.042969 92.671875 295.042969 C 109.84375 295.042969 126.214844 289.890625 140.058594 280.347656 C 153.902344 289.890625 170.273438 295.042969 187.445312 295.042969 C 204.601562 295.042969 220.960938 289.90625 234.796875 280.378906 C 248.683594 290.027344 265.140625 295.234375 282.410156 295.234375 C 304.785156 295.234375 325.824219 286.511719 341.644531 270.683594 C 357.460938 254.851562 366.175781 233.800781 366.175781 211.40625 C 366.175781 189.015625 357.460938 167.960938 341.644531 152.132812 Z M 114.332031 256.601562 C 95.65625 265.503906 72.582031 262.242188 57.136719 246.785156 C 37.542969 227.175781 37.542969 195.265625 57.136719 175.65625 C 57.136719 175.65625 57.136719 175.65625 57.136719 175.648438 L 104.523438 128.226562 C 114.011719 118.730469 126.640625 113.492188 140.066406 113.492188 C 147.695312 113.492188 155.066406 115.1875 161.742188 118.390625 L 128.222656 151.933594 C 115.230469 164.9375 107.039062 181.457031 104.523438 199.347656 C 103.976562 203.242188 103.6875 207.203125 103.6875 211.210938 C 103.6875 227.148438 108.125 242.390625 116.367188 255.566406 C 115.691406 255.941406 115.007812 256.273438 114.332031 256.601562 Z M 222.988281 246.785156 C 213.5 256.28125 200.871094 261.519531 187.445312 261.519531 C 174.019531 261.519531 161.402344 256.289062 151.902344 246.785156 C 132.308594 227.175781 132.308594 195.265625 151.902344 175.65625 L 187.445312 140.089844 L 222.988281 175.65625 C 242.582031 195.265625 242.582031 227.175781 222.988281 246.785156 Z M 317.945312 246.976562 C 302.429688 262.503906 279.21875 265.726562 260.5 256.671875 C 259.824219 256.34375 259.152344 256 258.492188 255.644531 C 266.765625 242.453125 271.210938 227.183594 271.210938 211.226562 C 271.210938 207.21875 270.921875 203.265625 270.375 199.363281 C 267.859375 181.472656 259.671875 164.953125 246.679688 151.949219 L 213.363281 118.609375 L 213.171875 118.417969 C 231.847656 109.515625 254.921875 112.777344 270.367188 128.234375 C 270.398438 128.265625 270.429688 128.304688 270.46875 128.339844 C 270.496094 128.371094 270.527344 128.394531 270.558594 128.425781 L 317.726562 175.625 L 317.945312 175.847656 C 327.433594 185.34375 332.671875 197.980469 332.671875 211.414062 C 332.671875 224.851562 327.441406 237.472656 317.945312 246.976562 Z M 317.945312 246.976562 " fill-opacity="1" fill-rule="nonzero"/></g></svg>