<svg xmlns="http://www.w3.org/2000/svg" xmlns:xlink="http://www.w3.org/1999/xlink" width="60" zoomAndPan="magnify" viewBox="0 0 375 374.999991" height="59" preserveAspectRatio="xMidYMid meet" version="1.0"><defs><clipPath id="id1"><path d="M 7.722656 72.652344 L 366.972656 72.652344 L 366.972656 289.402344 L 7.722656 289.402344 Z M 7.722656 72.652344 " clip-rule="nonzero"/></clipPath></defs><rect x="-37.5" width="450" fill="rgb(100%, 100%, 100%)" y="-37.499999" height="449.999989" fill-opacity="1"/><rect x="-37.5" width="450" fill="rgb(100%, 100%, 100%)" y="-37.499999" height="449.999989" fill-opacity="1"/><g clip-path="url(#id1)"><path fill="rgb(51.759338%, 60.778809%, 100%)" d="M 342.636719 145.320312 L 294.949219 97.566406 C 294.917969 97.539062 294.890625 97.515625 294.859375 97.484375 C 294.828125 97.453125 294.796875 97.414062 294.757812 97.375 C 278.839844 81.4375 257.667969 72.652344 235.152344 72.652344 C 217.875 72.652344 201.398438 77.84375 187.46875 87.453125 C 173.535156 77.84375 157.058594 72.652344 139.78125 72.652344 C 117.265625 72.652344 96.09375 81.4375 80.175781 97.375 L 32.488281 145.128906 C 16.570312 161.078125 7.800781 182.269531 7.800781 204.816406 C 7.800781 227.363281 16.570312 248.566406 32.488281 264.503906 C 48.40625 280.445312 69.578125 289.226562 92.09375 289.226562 C 109.375 289.226562 125.851562 284.035156 139.78125 274.429688 C 153.710938 284.035156 170.1875 289.226562 187.46875 289.226562 C 204.730469 289.226562 221.191406 284.050781 235.113281 274.460938 C 249.089844 284.175781 265.652344 289.417969 283.03125 289.417969 C 305.546875 289.417969 326.71875 280.636719 342.636719 264.695312 C 358.554688 248.757812 367.324219 227.554688 367.324219 205.007812 C 367.324219 182.460938 358.554688 161.261719 342.636719 145.320312 Z M 113.890625 250.519531 C 95.097656 259.484375 71.878906 256.199219 56.335938 240.632812 C 36.617188 220.886719 36.617188 188.753906 56.335938 169.007812 C 56.335938 169.007812 56.335938 169.007812 56.335938 169 L 104.023438 121.25 C 113.570312 111.6875 126.277344 106.410156 139.789062 106.410156 C 147.464844 106.410156 154.878906 108.117188 161.601562 111.339844 L 127.867188 145.121094 C 114.792969 158.214844 106.550781 174.851562 104.023438 192.867188 C 103.472656 196.785156 103.179688 200.773438 103.179688 204.808594 C 103.179688 220.855469 107.644531 236.207031 115.941406 249.476562 C 115.261719 249.851562 114.574219 250.1875 113.890625 250.519531 Z M 223.234375 240.632812 C 213.683594 250.195312 200.976562 255.472656 187.46875 255.472656 C 173.957031 255.472656 161.257812 250.203125 151.699219 240.632812 C 131.980469 220.886719 131.980469 188.753906 151.699219 169.007812 L 187.46875 133.191406 L 223.234375 169.007812 C 242.953125 188.753906 242.953125 220.886719 223.234375 240.632812 Z M 318.789062 240.824219 C 303.175781 256.460938 279.820312 259.707031 260.980469 250.585938 C 260.300781 250.257812 259.628906 249.914062 258.960938 249.554688 C 267.289062 236.269531 271.761719 220.894531 271.761719 204.824219 C 271.761719 200.789062 271.46875 196.808594 270.917969 192.882812 C 268.390625 174.867188 260.148438 158.230469 247.074219 145.136719 L 213.546875 111.5625 L 213.355469 111.371094 C 232.148438 102.40625 255.367188 105.691406 270.914062 121.257812 C 270.941406 121.285156 270.972656 121.324219 271.011719 121.363281 C 271.042969 121.394531 271.074219 121.417969 271.101562 121.449219 L 318.566406 168.976562 L 318.789062 169.199219 C 328.339844 178.761719 333.605469 191.488281 333.605469 205.015625 C 333.605469 218.546875 328.347656 231.253906 318.789062 240.824219 Z M 318.789062 240.824219 " fill-opacity="1" fill-rule="nonzero"/></g></svg>